<svg id="Group_3157" data-name="Group 3157" xmlns="http://www.w3.org/2000/svg" width="58" height="58" viewBox="0 0 58 58">
  <g id="Group_22" data-name="Group 22">
    <path id="Rectangle_40" data-name="Rectangle 40" d="M29,3A26.008,26.008,0,0,0,18.881,52.958,26.008,26.008,0,0,0,39.119,5.042,25.834,25.834,0,0,0,29,3m0-3A29,29,0,1,1,0,29,29,29,0,0,1,29,0Z" fill="#29a2c4"/>
  </g>
  <path id="Path_225" data-name="Path 225" d="M5.688-7.312H17.063a.815.815,0,0,0,.813-.812v-3.25a.815.815,0,0,0-.812-.812H5.688a.815.815,0,0,0-.812.813v3.25A.815.815,0,0,0,5.688-7.312ZM20.313-19.5H17.875v-2.437a.815.815,0,0,0-.812-.812H15.438a.815.815,0,0,0-.812.813V-19.5h-6.5v-2.437a.815.815,0,0,0-.812-.812H5.688a.815.815,0,0,0-.812.813V-19.5H2.438A2.438,2.438,0,0,0,0-17.062V.813A2.438,2.438,0,0,0,2.438,3.25H20.313A2.438,2.438,0,0,0,22.75.813V-17.062A2.438,2.438,0,0,0,20.313-19.5Zm0,20.008a.306.306,0,0,1-.3.3H2.742a.306.306,0,0,1-.3-.3V-14.625H20.313Z" transform="translate(17.503 39.477)" fill="#29a2c4"/>
</svg>
