<svg id="Group_26" data-name="Group 26" xmlns="http://www.w3.org/2000/svg" width="58" height="58" viewBox="0 0 58 58">
  <g id="Group_22" data-name="Group 22">
    <path id="Rectangle_40" data-name="Rectangle 40" d="M29,3A26.008,26.008,0,0,0,18.881,52.958,26.008,26.008,0,0,0,39.119,5.042,25.834,25.834,0,0,0,29,3m0-3A29,29,0,1,1,0,29,29,29,0,0,1,29,0Z" fill="#b10071"/>
  </g>
  <path id="Path_226" data-name="Path 226" d="M24.2-21.587l-4.784-1.1a2.317,2.317,0,0,0-2.656,1.351l-2.209,5.154a2.33,2.33,0,0,0,.665,2.712l2.031,1.661a15.792,15.792,0,0,1-6.307,6.3L9.278-7.541a2.33,2.33,0,0,0-2.712-.665L1.407-6A2.322,2.322,0,0,0,.056-3.341l1.1,4.784a2.315,2.315,0,0,0,2.265,1.8A22.565,22.565,0,0,0,26-19.322,2.315,2.315,0,0,0,24.2-21.587ZM3.519.813,2.458-3.793,7.445-5.931l2.829,3.458a18.4,18.4,0,0,0,10-10l-3.458-2.829,2.138-4.987,4.606,1.061A20.134,20.134,0,0,1,3.519.813Z" transform="translate(16.485 39.477)" fill="#b10071"/>
</svg>
