<svg xmlns="http://www.w3.org/2000/svg" width="152" height="152" viewBox="0 0 152 152">
  <path id="Path_239" data-name="Path 239" d="M10209.417-1429.973a75.86,75.86,0,0,1-12.91-7.008,76.671,76.671,0,0,1-11.248-9.281,76.646,76.646,0,0,1-9.28-11.248,75.791,75.791,0,0,1-7-12.91A75.5,75.5,0,0,1,10163-1500a75.5,75.5,0,0,1,5.973-29.581,75.791,75.791,0,0,1,7-12.91,76.646,76.646,0,0,1,9.28-11.248,76.671,76.671,0,0,1,11.248-9.281,75.87,75.87,0,0,1,12.91-7.008A75.525,75.525,0,0,1,10239-1576a75.511,75.511,0,0,1,29.581,5.972,75.87,75.87,0,0,1,12.91,7.008,76.467,76.467,0,0,1,11.248,9.281,76.646,76.646,0,0,1,9.28,11.248,76.01,76.01,0,0,1,7.008,12.91A75.555,75.555,0,0,1,10315-1500a75.555,75.555,0,0,1-5.973,29.581,76.01,76.01,0,0,1-7.008,12.91,76.646,76.646,0,0,1-9.28,11.248,76.467,76.467,0,0,1-11.248,9.281,75.86,75.86,0,0,1-12.91,7.008A75.509,75.509,0,0,1,10239-1424,75.523,75.523,0,0,1,10209.417-1429.973ZM10172-1500a67.077,67.077,0,0,0,67,67,67.077,67.077,0,0,0,67-67,67.075,67.075,0,0,0-67-67A67.074,67.074,0,0,0,10172-1500Zm82.831,26.012-15.833-15.83-15.83,15.83a4.973,4.973,0,0,1-7.036,0l-3.521-3.518a4.978,4.978,0,0,1,0-7.036l15.833-15.833-15.833-15.83a4.981,4.981,0,0,1,0-7.039l3.521-3.518a4.978,4.978,0,0,1,7.036,0l15.83,15.833,15.833-15.833a4.978,4.978,0,0,1,7.036,0l3.518,3.518a4.976,4.976,0,0,1,0,7.039l-15.83,15.83,15.83,15.833a4.973,4.973,0,0,1,0,7.036l-3.518,3.518a4.956,4.956,0,0,1-3.519,1.458A4.956,4.956,0,0,1,10254.831-1473.989Z" transform="translate(-10163.001 1576)" fill="#b10071"/>
</svg>
