<svg xmlns="http://www.w3.org/2000/svg" width="152" height="152" viewBox="0 0 152 152">
  <path id="Path_240" data-name="Path 240" d="M10209.417-1429.973a75.86,75.86,0,0,1-12.91-7.008,76.671,76.671,0,0,1-11.248-9.281,76.646,76.646,0,0,1-9.28-11.248,75.791,75.791,0,0,1-7-12.91A75.5,75.5,0,0,1,10163-1500a75.5,75.5,0,0,1,5.973-29.581,75.791,75.791,0,0,1,7-12.91,76.646,76.646,0,0,1,9.28-11.248,76.671,76.671,0,0,1,11.248-9.281,75.87,75.87,0,0,1,12.91-7.008A75.525,75.525,0,0,1,10239-1576a75.511,75.511,0,0,1,29.581,5.972,75.87,75.87,0,0,1,12.91,7.008,76.467,76.467,0,0,1,11.248,9.281,76.646,76.646,0,0,1,9.28,11.248,76.01,76.01,0,0,1,7.008,12.91A75.555,75.555,0,0,1,10315-1500a75.555,75.555,0,0,1-5.973,29.581,76.01,76.01,0,0,1-7.008,12.91,76.646,76.646,0,0,1-9.28,11.248,76.467,76.467,0,0,1-11.248,9.281,75.86,75.86,0,0,1-12.91,7.008A75.509,75.509,0,0,1,10239-1424,75.523,75.523,0,0,1,10209.417-1429.973ZM10172-1500a67.077,67.077,0,0,0,67,67,67.077,67.077,0,0,0,67-67,67.075,67.075,0,0,0-67-67A67.074,67.074,0,0,0,10172-1500Zm54.342,27.469a12.672,12.672,0,0,1,12.656-12.656,12.67,12.67,0,0,1,12.656,12.656,12.67,12.67,0,0,1-12.656,12.656A12.672,12.672,0,0,1,10226.342-1472.531Zm7.409-17.72a3.8,3.8,0,0,1-3.792-3.606l-2.151-43.032a3.8,3.8,0,0,1,3.792-3.987h14.8a3.8,3.8,0,0,1,3.79,3.987l-2.151,43.032a3.794,3.794,0,0,1-3.792,3.606Z" transform="translate(-10163.001 1576)" fill="#b10071"/>
</svg>
