<svg xmlns="http://www.w3.org/2000/svg" width="42" height="42" viewBox="0 0 42 42">
  <g id="Group_4133" data-name="Group 4133" transform="translate(22755.5 13543.5)">
    <path id="Path_428" data-name="Path 428" d="M13.475-6.187c-1.233,0-1.826.688-3.85.688s-2.612-.687-3.85-.687A5.777,5.777,0,0,0,0-.412v1.1A2.063,2.063,0,0,0,2.063,2.75H17.188A2.063,2.063,0,0,0,19.25.688v-1.1A5.777,5.777,0,0,0,13.475-6.187ZM17.188.688H2.063v-1.1A3.719,3.719,0,0,1,5.775-4.125c.627,0,1.646.688,3.85.688,2.221,0,3.218-.687,3.85-.687A3.719,3.719,0,0,1,17.188-.412ZM9.625-6.875a6.189,6.189,0,0,0,6.188-6.187A6.189,6.189,0,0,0,9.625-19.25a6.189,6.189,0,0,0-6.187,6.188A6.189,6.189,0,0,0,9.625-6.875Zm0-10.312a4.132,4.132,0,0,1,4.125,4.125A4.132,4.132,0,0,1,9.625-8.937,4.132,4.132,0,0,1,5.5-13.062,4.132,4.132,0,0,1,9.625-17.187Z" transform="translate(-22744 -13513.648)" fill="#c59e6e"/>
    <g id="Rectangle_2174" data-name="Rectangle 2174" transform="translate(-22755.5 -13543.5)" fill="none" stroke="#c59e6e" stroke-width="2">
      <rect width="42" height="42" rx="21" stroke="none"/>
      <rect x="1" y="1" width="40" height="40" rx="20" fill="none"/>
    </g>
  </g>
</svg>
